<?xml version="1.0" encoding="UTF-8"?>
<svg width="24px" height="24px" viewBox="0 0 24 24" version="1.1" xmlns="http://www.w3.org/2000/svg" xmlns:xlink="http://www.w3.org/1999/xlink">
    <!-- Generator: Sketch 53.2 (72643) - https://sketchapp.com -->
    <title>icon/menu/dashboard</title>
    <desc>Created with Sketch.</desc>
    <g id="icon/menu/dashboard" stroke="none" stroke-width="1" fill="none" fill-rule="evenodd">
        <path d="M9.93950505,12.4685185 C9.97446612,12.4685185 9.99814815,12.4452994 9.99814815,12.4270647 L9.99814815,1.65812051 C9.99814815,1.63382512 9.9807721,1.61666667 9.93950505,1.61666667 L1.67530977,1.61666667 C1.6403487,1.61666667 1.61666667,1.63988575 1.61666667,1.65812051 L1.61666667,12.4270647 C1.61666667,12.4513601 1.63404272,12.4685185 1.67530977,12.4685185 L9.93950505,12.4685185 Z M9.93950505,22.35 C9.97434442,22.35 9.99814815,22.3265607 9.99814815,22.3039659 L9.99814815,15.5939985 C9.99814815,15.5661739 9.97981379,15.5479644 9.93950505,15.5479644 L1.67530977,15.5479644 C1.6404704,15.5479644 1.61666667,15.5714037 1.61666667,15.5939985 L1.61666667,22.3039659 C1.61666667,22.3317905 1.63500102,22.35 1.67530977,22.35 L9.93950505,22.35 Z M22.2913569,22.35 C22.326318,22.35 22.35,22.3267809 22.35,22.3085462 L22.35,11.539602 C22.35,11.5153066 22.332624,11.4981481 22.2913569,11.4981481 L14.0271616,11.4981481 C13.9922005,11.4981481 13.9685185,11.5213672 13.9685185,11.539602 L13.9685185,22.3085462 C13.9685185,22.3328415 13.9858946,22.35 14.0271616,22.35 L22.2913569,22.35 Z M13.9685185,8.07979574 C13.9685185,8.10864157 13.9871309,8.12715811 14.0271616,8.12715811 L22.2913569,8.12715811 C22.3221472,8.12715811 22.35,8.09950311 22.35,8.07979574 L22.35,1.66402904 C22.35,1.63518321 22.3313876,1.61666667 22.2913569,1.61666667 L14.0271616,1.61666667 C13.9963713,1.61666667 13.9685185,1.64432167 13.9685185,1.66402904 L13.9685185,8.07979574 Z" id="Icon" stroke="#FFFFFF" stroke-width="1.5"></path>
    </g>
</svg>